<svg xmlns="http://www.w3.org/2000/svg" version="1.1" xmlns:xlink="http://www.w3.org/1999/xlink" xmlns:svgjs="http://svgjs.dev/svgjs" viewBox="0 0 800 800" opacity="0.68" width="800" height="800"><g stroke-width="2.5" stroke="hsla(212, 72%, 59%, 1.00)" fill="none"><rect width="11.31578947368421" height="11.31578947368421" x="-5.657894736842105" y="-5.657894736842105" fill="hsla(212, 72%, 59%, 1.00)" stroke="none"></rect><rect width="11.31578947368421" height="11.31578947368421" x="61.00877192982457" y="-5.657894736842105" fill="hsla(212, 72%, 59%, 1.00)" stroke="none"></rect><rect width="11.31578947368421" height="11.31578947368421" x="127.67543859649123" y="-5.657894736842105" fill="hsla(212, 72%, 59%, 1.00)" stroke="none"></rect><rect width="11.31578947368421" height="11.31578947368421" x="194.3421052631579" y="-5.657894736842105" fill="hsla(212, 72%, 59%, 1.00)" stroke="none"></rect><rect width="11.31578947368421" height="11.31578947368421" x="261.0087719298246" y="-5.657894736842105" fill="hsla(212, 72%, 59%, 1.00)" stroke="none"></rect><rect width="11.31578947368421" height="11.31578947368421" x="327.6754385964913" y="-5.657894736842105" fill="hsla(212, 72%, 59%, 1.00)" stroke="none"></rect><rect width="11.31578947368421" height="11.31578947368421" x="394.342105263158" y="-5.657894736842105" fill="hsla(212, 72%, 59%, 1.00)" stroke="none"></rect><rect width="11.31578947368421" height="11.31578947368421" x="461.00877192982466" y="-5.657894736842105" fill="hsla(212, 72%, 59%, 1.00)" stroke="none"></rect><rect width="11.31578947368421" height="11.31578947368421" x="527.6754385964913" y="-5.657894736842105" fill="hsla(212, 72%, 59%, 1.00)" stroke="none"></rect><rect width="11.31578947368421" height="11.31578947368421" x="594.3421052631579" y="-5.657894736842105" fill="hsla(212, 72%, 59%, 1.00)" stroke="none"></rect><rect width="11.31578947368421" height="11.31578947368421" x="661.0087719298245" y="-5.657894736842105" fill="hsla(212, 72%, 59%, 1.00)" stroke="none"></rect><rect width="11.31578947368421" height="11.31578947368421" x="727.6754385964912" y="-5.657894736842105" fill="hsla(212, 72%, 59%, 1.00)" stroke="none"></rect><rect width="11.31578947368421" height="11.31578947368421" x="794.3421052631578" y="-5.657894736842105" fill="hsla(212, 72%, 59%, 1.00)" stroke="none"></rect><rect width="11.31578947368421" height="11.31578947368421" x="-5.657894736842105" y="61.00877192982457" fill="hsla(212, 72%, 59%, 1.00)" stroke="none"></rect><rect width="11.31578947368421" height="11.31578947368421" x="61.00877192982457" y="61.00877192982457" fill="hsla(212, 72%, 59%, 1.00)" stroke="none"></rect><rect width="11.31578947368421" height="11.31578947368421" x="127.67543859649123" y="61.00877192982457" fill="hsla(212, 72%, 59%, 1.00)" stroke="none"></rect><rect width="11.31578947368421" height="11.31578947368421" x="194.3421052631579" y="61.00877192982457" fill="hsla(212, 72%, 59%, 1.00)" stroke="none"></rect><rect width="11.31578947368421" height="11.31578947368421" x="261.0087719298246" y="61.00877192982457" fill="hsla(212, 72%, 59%, 1.00)" stroke="none"></rect><rect width="11.31578947368421" height="11.31578947368421" x="327.6754385964913" y="61.00877192982457" fill="hsla(212, 72%, 59%, 1.00)" stroke="none"></rect><rect width="11.31578947368421" height="11.31578947368421" x="394.342105263158" y="61.00877192982457" fill="hsla(212, 72%, 59%, 1.00)" stroke="none"></rect><rect width="11.31578947368421" height="11.31578947368421" x="461.00877192982466" y="61.00877192982457" fill="hsla(212, 72%, 59%, 1.00)" stroke="none"></rect><rect width="11.31578947368421" height="11.31578947368421" x="527.6754385964913" y="61.00877192982457" fill="hsla(212, 72%, 59%, 1.00)" stroke="none" transform="rotate(45, 533.3333333333334, 66.66666666666667)"></rect><rect width="11.31578947368421" height="11.31578947368421" x="594.3421052631579" y="61.00877192982457" fill="hsla(212, 72%, 59%, 1.00)" stroke="none"></rect><rect width="11.31578947368421" height="11.31578947368421" x="661.0087719298245" y="61.00877192982457" fill="hsla(212, 72%, 59%, 1.00)" stroke="none"></rect><rect width="11.31578947368421" height="11.31578947368421" x="727.6754385964912" y="61.00877192982457" fill="hsla(212, 72%, 59%, 1.00)" stroke="none"></rect><rect width="11.31578947368421" height="11.31578947368421" x="794.3421052631578" y="61.00877192982457" fill="hsla(212, 72%, 59%, 1.00)" stroke="none"></rect><rect width="11.31578947368421" height="11.31578947368421" x="-5.657894736842105" y="127.67543859649123" fill="hsla(212, 72%, 59%, 1.00)" stroke="none"></rect><rect width="11.31578947368421" height="11.31578947368421" x="61.00877192982457" y="127.67543859649123" fill="hsla(212, 72%, 59%, 1.00)" stroke="none"></rect><rect width="11.31578947368421" height="11.31578947368421" x="127.67543859649123" y="127.67543859649123" fill="hsla(212, 72%, 59%, 1.00)" stroke="none"></rect><rect width="11.31578947368421" height="11.31578947368421" x="194.3421052631579" y="127.67543859649123" fill="hsla(212, 72%, 59%, 1.00)" stroke="none"></rect><rect width="11.31578947368421" height="11.31578947368421" x="261.0087719298246" y="127.67543859649123" fill="hsla(212, 72%, 59%, 1.00)" stroke="none"></rect><rect width="11.31578947368421" height="11.31578947368421" x="327.6754385964913" y="127.67543859649123" fill="hsla(212, 72%, 59%, 1.00)" stroke="none" transform="rotate(45, 333.33333333333337, 133.33333333333334)"></rect><rect width="11.31578947368421" height="11.31578947368421" x="394.342105263158" y="127.67543859649123" fill="hsla(212, 72%, 59%, 1.00)" stroke="none"></rect><rect width="11.31578947368421" height="11.31578947368421" x="461.00877192982466" y="127.67543859649123" fill="hsla(212, 72%, 59%, 1.00)" stroke="none" transform="rotate(45, 466.66666666666674, 133.33333333333334)"></rect><rect width="11.31578947368421" height="11.31578947368421" x="527.6754385964913" y="127.67543859649123" fill="hsla(212, 72%, 59%, 1.00)" stroke="none"></rect><rect width="11.31578947368421" height="11.31578947368421" x="594.3421052631579" y="127.67543859649123" fill="hsla(212, 72%, 59%, 1.00)" stroke="none"></rect><rect width="11.31578947368421" height="11.31578947368421" x="661.0087719298245" y="127.67543859649123" fill="hsla(212, 72%, 59%, 1.00)" stroke="none"></rect><rect width="11.31578947368421" height="11.31578947368421" x="727.6754385964912" y="127.67543859649123" fill="hsla(212, 72%, 59%, 1.00)" stroke="none"></rect><rect width="11.31578947368421" height="11.31578947368421" x="794.3421052631578" y="127.67543859649123" fill="hsla(212, 72%, 59%, 1.00)" stroke="none"></rect><rect width="11.31578947368421" height="11.31578947368421" x="-5.657894736842105" y="194.3421052631579" fill="hsla(212, 72%, 59%, 1.00)" stroke="none"></rect><rect width="11.31578947368421" height="11.31578947368421" x="61.00877192982457" y="194.3421052631579" fill="hsla(212, 72%, 59%, 1.00)" stroke="none" transform="rotate(45, 66.66666666666667, 200)"></rect><rect width="11.31578947368421" height="11.31578947368421" x="127.67543859649123" y="194.3421052631579" fill="hsla(212, 72%, 59%, 1.00)" stroke="none" transform="rotate(45, 133.33333333333334, 200)"></rect><rect width="11.31578947368421" height="11.31578947368421" x="194.3421052631579" y="194.3421052631579" fill="hsla(212, 72%, 59%, 1.00)" stroke="none"></rect><rect width="11.31578947368421" height="11.31578947368421" x="261.0087719298246" y="194.3421052631579" fill="hsla(212, 72%, 59%, 1.00)" stroke="none"></rect><rect width="11.31578947368421" height="11.31578947368421" x="327.6754385964913" y="194.3421052631579" fill="hsla(212, 72%, 59%, 1.00)" stroke="none"></rect><rect width="11.31578947368421" height="11.31578947368421" x="394.342105263158" y="194.3421052631579" fill="hsla(212, 72%, 59%, 1.00)" stroke="none"></rect><rect width="11.31578947368421" height="11.31578947368421" x="461.00877192982466" y="194.3421052631579" fill="hsla(212, 72%, 59%, 1.00)" stroke="none"></rect><rect width="11.31578947368421" height="11.31578947368421" x="527.6754385964913" y="194.3421052631579" fill="hsla(212, 72%, 59%, 1.00)" stroke="none"></rect><rect width="11.31578947368421" height="11.31578947368421" x="594.3421052631579" y="194.3421052631579" fill="hsla(212, 72%, 59%, 1.00)" stroke="none"></rect><rect width="11.31578947368421" height="11.31578947368421" x="661.0087719298245" y="194.3421052631579" fill="hsla(212, 72%, 59%, 1.00)" stroke="none"></rect><rect width="11.31578947368421" height="11.31578947368421" x="727.6754385964912" y="194.3421052631579" fill="hsla(212, 72%, 59%, 1.00)" stroke="none"></rect><rect width="11.31578947368421" height="11.31578947368421" x="794.3421052631578" y="194.3421052631579" fill="hsla(212, 72%, 59%, 1.00)" stroke="none"></rect><rect width="11.31578947368421" height="11.31578947368421" x="-5.657894736842105" y="261.0087719298246" fill="hsla(212, 72%, 59%, 1.00)" stroke="none"></rect><rect width="11.31578947368421" height="11.31578947368421" x="61.00877192982457" y="261.0087719298246" fill="hsla(212, 72%, 59%, 1.00)" stroke="none"></rect><rect width="11.31578947368421" height="11.31578947368421" x="127.67543859649123" y="261.0087719298246" fill="hsla(212, 72%, 59%, 1.00)" stroke="none" transform="rotate(45, 133.33333333333334, 266.6666666666667)"></rect><rect width="11.31578947368421" height="11.31578947368421" x="194.3421052631579" y="261.0087719298246" fill="hsla(212, 72%, 59%, 1.00)" stroke="none"></rect><rect width="11.31578947368421" height="11.31578947368421" x="261.0087719298246" y="261.0087719298246" fill="hsla(212, 72%, 59%, 1.00)" stroke="none"></rect><rect width="11.31578947368421" height="11.31578947368421" x="327.6754385964913" y="261.0087719298246" fill="hsla(212, 72%, 59%, 1.00)" stroke="none"></rect><rect width="11.31578947368421" height="11.31578947368421" x="394.342105263158" y="261.0087719298246" fill="hsla(212, 72%, 59%, 1.00)" stroke="none"></rect><rect width="11.31578947368421" height="11.31578947368421" x="461.00877192982466" y="261.0087719298246" fill="hsla(212, 72%, 59%, 1.00)" stroke="none"></rect><rect width="11.31578947368421" height="11.31578947368421" x="527.6754385964913" y="261.0087719298246" fill="hsla(212, 72%, 59%, 1.00)" stroke="none"></rect><rect width="11.31578947368421" height="11.31578947368421" x="594.3421052631579" y="261.0087719298246" fill="hsla(212, 72%, 59%, 1.00)" stroke="none"></rect><rect width="11.31578947368421" height="11.31578947368421" x="661.0087719298245" y="261.0087719298246" fill="hsla(212, 72%, 59%, 1.00)" stroke="none"></rect><rect width="11.31578947368421" height="11.31578947368421" x="727.6754385964912" y="261.0087719298246" fill="hsla(212, 72%, 59%, 1.00)" stroke="none"></rect><rect width="11.31578947368421" height="11.31578947368421" x="794.3421052631578" y="261.0087719298246" fill="hsla(212, 72%, 59%, 1.00)" stroke="none"></rect><rect width="11.31578947368421" height="11.31578947368421" x="-5.657894736842105" y="327.6754385964913" fill="hsla(212, 72%, 59%, 1.00)" stroke="none"></rect><rect width="11.31578947368421" height="11.31578947368421" x="61.00877192982457" y="327.6754385964913" fill="hsla(212, 72%, 59%, 1.00)" stroke="none"></rect><rect width="11.31578947368421" height="11.31578947368421" x="127.67543859649123" y="327.6754385964913" fill="hsla(212, 72%, 59%, 1.00)" stroke="none"></rect><rect width="11.31578947368421" height="11.31578947368421" x="194.3421052631579" y="327.6754385964913" fill="hsla(212, 72%, 59%, 1.00)" stroke="none"></rect><rect width="11.31578947368421" height="11.31578947368421" x="261.0087719298246" y="327.6754385964913" fill="hsla(212, 72%, 59%, 1.00)" stroke="none" transform="rotate(45, 266.6666666666667, 333.33333333333337)"></rect><rect width="11.31578947368421" height="11.31578947368421" x="327.6754385964913" y="327.6754385964913" fill="hsla(212, 72%, 59%, 1.00)" stroke="none"></rect><rect width="11.31578947368421" height="11.31578947368421" x="394.342105263158" y="327.6754385964913" fill="hsla(212, 72%, 59%, 1.00)" stroke="none"></rect><rect width="11.31578947368421" height="11.31578947368421" x="461.00877192982466" y="327.6754385964913" fill="hsla(212, 72%, 59%, 1.00)" stroke="none"></rect><rect width="11.31578947368421" height="11.31578947368421" x="527.6754385964913" y="327.6754385964913" fill="hsla(212, 72%, 59%, 1.00)" stroke="none"></rect><rect width="11.31578947368421" height="11.31578947368421" x="594.3421052631579" y="327.6754385964913" fill="hsla(212, 72%, 59%, 1.00)" stroke="none"></rect><rect width="11.31578947368421" height="11.31578947368421" x="661.0087719298245" y="327.6754385964913" fill="hsla(212, 72%, 59%, 1.00)" stroke="none" transform="rotate(45, 666.6666666666666, 333.33333333333337)"></rect><rect width="11.31578947368421" height="11.31578947368421" x="727.6754385964912" y="327.6754385964913" fill="hsla(212, 72%, 59%, 1.00)" stroke="none"></rect><rect width="11.31578947368421" height="11.31578947368421" x="794.3421052631578" y="327.6754385964913" fill="hsla(212, 72%, 59%, 1.00)" stroke="none"></rect><rect width="11.31578947368421" height="11.31578947368421" x="-5.657894736842105" y="394.342105263158" fill="hsla(212, 72%, 59%, 1.00)" stroke="none"></rect><rect width="11.31578947368421" height="11.31578947368421" x="61.00877192982457" y="394.342105263158" fill="hsla(212, 72%, 59%, 1.00)" stroke="none"></rect><rect width="11.31578947368421" height="11.31578947368421" x="127.67543859649123" y="394.342105263158" fill="hsla(212, 72%, 59%, 1.00)" stroke="none" transform="rotate(45, 133.33333333333334, 400.00000000000006)"></rect><rect width="11.31578947368421" height="11.31578947368421" x="194.3421052631579" y="394.342105263158" fill="hsla(212, 72%, 59%, 1.00)" stroke="none"></rect><rect width="11.31578947368421" height="11.31578947368421" x="261.0087719298246" y="394.342105263158" fill="hsla(212, 72%, 59%, 1.00)" stroke="none" transform="rotate(45, 266.6666666666667, 400.00000000000006)"></rect><rect width="11.31578947368421" height="11.31578947368421" x="327.6754385964913" y="394.342105263158" fill="hsla(212, 72%, 59%, 1.00)" stroke="none"></rect><rect width="11.31578947368421" height="11.31578947368421" x="394.342105263158" y="394.342105263158" fill="hsla(212, 72%, 59%, 1.00)" stroke="none" transform="rotate(45, 400.00000000000006, 400.00000000000006)"></rect><rect width="11.31578947368421" height="11.31578947368421" x="461.00877192982466" y="394.342105263158" fill="hsla(212, 72%, 59%, 1.00)" stroke="none"></rect><rect width="11.31578947368421" height="11.31578947368421" x="527.6754385964913" y="394.342105263158" fill="hsla(212, 72%, 59%, 1.00)" stroke="none"></rect><rect width="11.31578947368421" height="11.31578947368421" x="594.3421052631579" y="394.342105263158" fill="hsla(212, 72%, 59%, 1.00)" stroke="none"></rect><rect width="11.31578947368421" height="11.31578947368421" x="661.0087719298245" y="394.342105263158" fill="hsla(212, 72%, 59%, 1.00)" stroke="none" transform="rotate(45, 666.6666666666666, 400.00000000000006)"></rect><rect width="11.31578947368421" height="11.31578947368421" x="727.6754385964912" y="394.342105263158" fill="hsla(212, 72%, 59%, 1.00)" stroke="none"></rect><rect width="11.31578947368421" height="11.31578947368421" x="794.3421052631578" y="394.342105263158" fill="hsla(212, 72%, 59%, 1.00)" stroke="none"></rect><rect width="11.31578947368421" height="11.31578947368421" x="-5.657894736842105" y="461.00877192982466" fill="hsla(212, 72%, 59%, 1.00)" stroke="none"></rect><rect width="11.31578947368421" height="11.31578947368421" x="61.00877192982457" y="461.00877192982466" fill="hsla(212, 72%, 59%, 1.00)" stroke="none"></rect><rect width="11.31578947368421" height="11.31578947368421" x="127.67543859649123" y="461.00877192982466" fill="hsla(212, 72%, 59%, 1.00)" stroke="none"></rect><rect width="11.31578947368421" height="11.31578947368421" x="194.3421052631579" y="461.00877192982466" fill="hsla(212, 72%, 59%, 1.00)" stroke="none"></rect><rect width="11.31578947368421" height="11.31578947368421" x="261.0087719298246" y="461.00877192982466" fill="hsla(212, 72%, 59%, 1.00)" stroke="none"></rect><rect width="11.31578947368421" height="11.31578947368421" x="327.6754385964913" y="461.00877192982466" fill="hsla(212, 72%, 59%, 1.00)" stroke="none"></rect><rect width="11.31578947368421" height="11.31578947368421" x="394.342105263158" y="461.00877192982466" fill="hsla(212, 72%, 59%, 1.00)" stroke="none" transform="rotate(45, 400.00000000000006, 466.66666666666674)"></rect><rect width="11.31578947368421" height="11.31578947368421" x="461.00877192982466" y="461.00877192982466" fill="hsla(212, 72%, 59%, 1.00)" stroke="none"></rect><rect width="11.31578947368421" height="11.31578947368421" x="527.6754385964913" y="461.00877192982466" fill="hsla(212, 72%, 59%, 1.00)" stroke="none"></rect><rect width="11.31578947368421" height="11.31578947368421" x="594.3421052631579" y="461.00877192982466" fill="hsla(212, 72%, 59%, 1.00)" stroke="none"></rect><rect width="11.31578947368421" height="11.31578947368421" x="661.0087719298245" y="461.00877192982466" fill="hsla(212, 72%, 59%, 1.00)" stroke="none"></rect><rect width="11.31578947368421" height="11.31578947368421" x="727.6754385964912" y="461.00877192982466" fill="hsla(212, 72%, 59%, 1.00)" stroke="none" transform="rotate(45, 733.3333333333333, 466.66666666666674)"></rect><rect width="11.31578947368421" height="11.31578947368421" x="794.3421052631578" y="461.00877192982466" fill="hsla(212, 72%, 59%, 1.00)" stroke="none"></rect><rect width="11.31578947368421" height="11.31578947368421" x="-5.657894736842105" y="527.6754385964913" fill="hsla(212, 72%, 59%, 1.00)" stroke="none"></rect><rect width="11.31578947368421" height="11.31578947368421" x="61.00877192982457" y="527.6754385964913" fill="hsla(212, 72%, 59%, 1.00)" stroke="none" transform="rotate(45, 66.66666666666667, 533.3333333333334)"></rect><rect width="11.31578947368421" height="11.31578947368421" x="127.67543859649123" y="527.6754385964913" fill="hsla(212, 72%, 59%, 1.00)" stroke="none" transform="rotate(45, 133.33333333333334, 533.3333333333334)"></rect><rect width="11.31578947368421" height="11.31578947368421" x="194.3421052631579" y="527.6754385964913" fill="hsla(212, 72%, 59%, 1.00)" stroke="none" transform="rotate(45, 200, 533.3333333333334)"></rect><rect width="11.31578947368421" height="11.31578947368421" x="261.0087719298246" y="527.6754385964913" fill="hsla(212, 72%, 59%, 1.00)" stroke="none"></rect><rect width="11.31578947368421" height="11.31578947368421" x="327.6754385964913" y="527.6754385964913" fill="hsla(212, 72%, 59%, 1.00)" stroke="none"></rect><rect width="11.31578947368421" height="11.31578947368421" x="394.342105263158" y="527.6754385964913" fill="hsla(212, 72%, 59%, 1.00)" stroke="none"></rect><rect width="11.31578947368421" height="11.31578947368421" x="461.00877192982466" y="527.6754385964913" fill="hsla(212, 72%, 59%, 1.00)" stroke="none"></rect><rect width="11.31578947368421" height="11.31578947368421" x="527.6754385964913" y="527.6754385964913" fill="hsla(212, 72%, 59%, 1.00)" stroke="none"></rect><rect width="11.31578947368421" height="11.31578947368421" x="594.3421052631579" y="527.6754385964913" fill="hsla(212, 72%, 59%, 1.00)" stroke="none"></rect><rect width="11.31578947368421" height="11.31578947368421" x="661.0087719298245" y="527.6754385964913" fill="hsla(212, 72%, 59%, 1.00)" stroke="none"></rect><rect width="11.31578947368421" height="11.31578947368421" x="727.6754385964912" y="527.6754385964913" fill="hsla(212, 72%, 59%, 1.00)" stroke="none"></rect><rect width="11.31578947368421" height="11.31578947368421" x="794.3421052631578" y="527.6754385964913" fill="hsla(212, 72%, 59%, 1.00)" stroke="none"></rect><rect width="11.31578947368421" height="11.31578947368421" x="-5.657894736842105" y="594.3421052631579" fill="hsla(212, 72%, 59%, 1.00)" stroke="none"></rect><rect width="11.31578947368421" height="11.31578947368421" x="61.00877192982457" y="594.3421052631579" fill="hsla(212, 72%, 59%, 1.00)" stroke="none"></rect><rect width="11.31578947368421" height="11.31578947368421" x="127.67543859649123" y="594.3421052631579" fill="hsla(212, 72%, 59%, 1.00)" stroke="none"></rect><rect width="11.31578947368421" height="11.31578947368421" x="194.3421052631579" y="594.3421052631579" fill="hsla(212, 72%, 59%, 1.00)" stroke="none" transform="rotate(45, 200, 600)"></rect><rect width="11.31578947368421" height="11.31578947368421" x="261.0087719298246" y="594.3421052631579" fill="hsla(212, 72%, 59%, 1.00)" stroke="none"></rect><rect width="11.31578947368421" height="11.31578947368421" x="327.6754385964913" y="594.3421052631579" fill="hsla(212, 72%, 59%, 1.00)" stroke="none"></rect><rect width="11.31578947368421" height="11.31578947368421" x="394.342105263158" y="594.3421052631579" fill="hsla(212, 72%, 59%, 1.00)" stroke="none"></rect><rect width="11.31578947368421" height="11.31578947368421" x="461.00877192982466" y="594.3421052631579" fill="hsla(212, 72%, 59%, 1.00)" stroke="none" transform="rotate(45, 466.66666666666674, 600)"></rect><rect width="11.31578947368421" height="11.31578947368421" x="527.6754385964913" y="594.3421052631579" fill="hsla(212, 72%, 59%, 1.00)" stroke="none"></rect><rect width="11.31578947368421" height="11.31578947368421" x="594.3421052631579" y="594.3421052631579" fill="hsla(212, 72%, 59%, 1.00)" stroke="none"></rect><rect width="11.31578947368421" height="11.31578947368421" x="661.0087719298245" y="594.3421052631579" fill="hsla(212, 72%, 59%, 1.00)" stroke="none"></rect><rect width="11.31578947368421" height="11.31578947368421" x="727.6754385964912" y="594.3421052631579" fill="hsla(212, 72%, 59%, 1.00)" stroke="none"></rect><rect width="11.31578947368421" height="11.31578947368421" x="794.3421052631578" y="594.3421052631579" fill="hsla(212, 72%, 59%, 1.00)" stroke="none"></rect><rect width="11.31578947368421" height="11.31578947368421" x="-5.657894736842105" y="661.0087719298245" fill="hsla(212, 72%, 59%, 1.00)" stroke="none"></rect><rect width="11.31578947368421" height="11.31578947368421" x="61.00877192982457" y="661.0087719298245" fill="hsla(212, 72%, 59%, 1.00)" stroke="none"></rect><rect width="11.31578947368421" height="11.31578947368421" x="127.67543859649123" y="661.0087719298245" fill="hsla(212, 72%, 59%, 1.00)" stroke="none"></rect><rect width="11.31578947368421" height="11.31578947368421" x="194.3421052631579" y="661.0087719298245" fill="hsla(212, 72%, 59%, 1.00)" stroke="none"></rect><rect width="11.31578947368421" height="11.31578947368421" x="261.0087719298246" y="661.0087719298245" fill="hsla(212, 72%, 59%, 1.00)" stroke="none"></rect><rect width="11.31578947368421" height="11.31578947368421" x="327.6754385964913" y="661.0087719298245" fill="hsla(212, 72%, 59%, 1.00)" stroke="none" transform="rotate(45, 333.33333333333337, 666.6666666666666)"></rect><rect width="11.31578947368421" height="11.31578947368421" x="394.342105263158" y="661.0087719298245" fill="hsla(212, 72%, 59%, 1.00)" stroke="none"></rect><rect width="11.31578947368421" height="11.31578947368421" x="461.00877192982466" y="661.0087719298245" fill="hsla(212, 72%, 59%, 1.00)" stroke="none"></rect><rect width="11.31578947368421" height="11.31578947368421" x="527.6754385964913" y="661.0087719298245" fill="hsla(212, 72%, 59%, 1.00)" stroke="none"></rect><rect width="11.31578947368421" height="11.31578947368421" x="594.3421052631579" y="661.0087719298245" fill="hsla(212, 72%, 59%, 1.00)" stroke="none"></rect><rect width="11.31578947368421" height="11.31578947368421" x="661.0087719298245" y="661.0087719298245" fill="hsla(212, 72%, 59%, 1.00)" stroke="none"></rect><rect width="11.31578947368421" height="11.31578947368421" x="727.6754385964912" y="661.0087719298245" fill="hsla(212, 72%, 59%, 1.00)" stroke="none"></rect><rect width="11.31578947368421" height="11.31578947368421" x="794.3421052631578" y="661.0087719298245" fill="hsla(212, 72%, 59%, 1.00)" stroke="none"></rect><rect width="11.31578947368421" height="11.31578947368421" x="-5.657894736842105" y="727.6754385964912" fill="hsla(212, 72%, 59%, 1.00)" stroke="none"></rect><rect width="11.31578947368421" height="11.31578947368421" x="61.00877192982457" y="727.6754385964912" fill="hsla(212, 72%, 59%, 1.00)" stroke="none"></rect><rect width="11.31578947368421" height="11.31578947368421" x="127.67543859649123" y="727.6754385964912" fill="hsla(212, 72%, 59%, 1.00)" stroke="none"></rect><rect width="11.31578947368421" height="11.31578947368421" x="194.3421052631579" y="727.6754385964912" fill="hsla(212, 72%, 59%, 1.00)" stroke="none"></rect><rect width="11.31578947368421" height="11.31578947368421" x="261.0087719298246" y="727.6754385964912" fill="hsla(212, 72%, 59%, 1.00)" stroke="none"></rect><rect width="11.31578947368421" height="11.31578947368421" x="327.6754385964913" y="727.6754385964912" fill="hsla(212, 72%, 59%, 1.00)" stroke="none"></rect><rect width="11.31578947368421" height="11.31578947368421" x="394.342105263158" y="727.6754385964912" fill="hsla(212, 72%, 59%, 1.00)" stroke="none"></rect><rect width="11.31578947368421" height="11.31578947368421" x="461.00877192982466" y="727.6754385964912" fill="hsla(212, 72%, 59%, 1.00)" stroke="none"></rect><rect width="11.31578947368421" height="11.31578947368421" x="527.6754385964913" y="727.6754385964912" fill="hsla(212, 72%, 59%, 1.00)" stroke="none" transform="rotate(45, 533.3333333333334, 733.3333333333333)"></rect><rect width="11.31578947368421" height="11.31578947368421" x="594.3421052631579" y="727.6754385964912" fill="hsla(212, 72%, 59%, 1.00)" stroke="none"></rect><rect width="11.31578947368421" height="11.31578947368421" x="661.0087719298245" y="727.6754385964912" fill="hsla(212, 72%, 59%, 1.00)" stroke="none"></rect><rect width="11.31578947368421" height="11.31578947368421" x="727.6754385964912" y="727.6754385964912" fill="hsla(212, 72%, 59%, 1.00)" stroke="none" transform="rotate(45, 733.3333333333333, 733.3333333333333)"></rect><rect width="11.31578947368421" height="11.31578947368421" x="794.3421052631578" y="727.6754385964912" fill="hsla(212, 72%, 59%, 1.00)" stroke="none"></rect><rect width="11.31578947368421" height="11.31578947368421" x="-5.657894736842105" y="794.3421052631578" fill="hsla(212, 72%, 59%, 1.00)" stroke="none"></rect><rect width="11.31578947368421" height="11.31578947368421" x="61.00877192982457" y="794.3421052631578" fill="hsla(212, 72%, 59%, 1.00)" stroke="none"></rect><rect width="11.31578947368421" height="11.31578947368421" x="127.67543859649123" y="794.3421052631578" fill="hsla(212, 72%, 59%, 1.00)" stroke="none"></rect><rect width="11.31578947368421" height="11.31578947368421" x="194.3421052631579" y="794.3421052631578" fill="hsla(212, 72%, 59%, 1.00)" stroke="none"></rect><rect width="11.31578947368421" height="11.31578947368421" x="261.0087719298246" y="794.3421052631578" fill="hsla(212, 72%, 59%, 1.00)" stroke="none"></rect><rect width="11.31578947368421" height="11.31578947368421" x="327.6754385964913" y="794.3421052631578" fill="hsla(212, 72%, 59%, 1.00)" stroke="none"></rect><rect width="11.31578947368421" height="11.31578947368421" x="394.342105263158" y="794.3421052631578" fill="hsla(212, 72%, 59%, 1.00)" stroke="none"></rect><rect width="11.31578947368421" height="11.31578947368421" x="461.00877192982466" y="794.3421052631578" fill="hsla(212, 72%, 59%, 1.00)" stroke="none"></rect><rect width="11.31578947368421" height="11.31578947368421" x="527.6754385964913" y="794.3421052631578" fill="hsla(212, 72%, 59%, 1.00)" stroke="none"></rect><rect width="11.31578947368421" height="11.31578947368421" x="594.3421052631579" y="794.3421052631578" fill="hsla(212, 72%, 59%, 1.00)" stroke="none"></rect><rect width="11.31578947368421" height="11.31578947368421" x="661.0087719298245" y="794.3421052631578" fill="hsla(212, 72%, 59%, 1.00)" stroke="none"></rect><rect width="11.31578947368421" height="11.31578947368421" x="727.6754385964912" y="794.3421052631578" fill="hsla(212, 72%, 59%, 1.00)" stroke="none"></rect><rect width="11.31578947368421" height="11.31578947368421" x="794.3421052631578" y="794.3421052631578" fill="hsla(212, 72%, 59%, 1.00)" stroke="none"></rect></g></svg>