<?xml version="1.0" standalone="no"?>
<!DOCTYPE svg PUBLIC "-//W3C//DTD SVG 20010904//EN"
 "http://www.w3.org/TR/2001/REC-SVG-20010904/DTD/svg10.dtd">
<svg version="1.0" xmlns="http://www.w3.org/2000/svg"
 width="447.000000pt" height="539.000000pt" viewBox="0 0 447.000000 539.000000"
 preserveAspectRatio="xMidYMid meet">

<g transform="translate(0.000000,539.000000) scale(0.100000,-0.100000)"
fill="#000000" stroke="none">
<path d="M160 5353 c-42 -18 -86 -58 -106 -95 -21 -41 -21 -5105 0 -5146 20
-39 65 -78 110 -96 35 -14 234 -16 2071 -16 1837 0 2036 2 2071 16 45 18 90
57 110 96 21 41 21 5105 0 5146 -20 39 -65 78 -110 96 -35 14 -234 16 -2075
15 -1788 -1 -2040 -2 -2071 -16z m4142 -102 l33 -29 0 -2537 0 -2537 -33 -29
-32 -29 -2035 0 -2035 0 -32 29 -33 29 0 2537 0 2537 33 29 32 29 2035 0 2035
0 32 -29z"/>
<path d="M570 4966 c-63 -23 -70 -48 -70 -249 0 -104 4 -186 10 -198 12 -21
50 -25 68 -7 8 8 12 62 12 179 0 92 3 174 6 183 6 15 159 16 1639 16 1480 0
1633 -1 1639 -16 3 -9 6 -384 6 -834 0 -818 0 -819 21 -830 16 -9 26 -8 45 5
l24 15 0 833 c0 794 -1 833 -19 863 -12 20 -32 34 -58 42 -60 18 -3273 16
-3323 -2z"/>
<path d="M2144 4610 c-18 -12 -57 -61 -89 -113 -32 -50 -72 -114 -90 -142 -18
-27 -62 -97 -97 -155 -137 -222 -201 -326 -223 -360 -13 -19 -87 -138 -165
-265 -78 -126 -157 -252 -174 -280 -88 -135 -125 -203 -131 -236 -8 -43 15
-105 48 -132 61 -49 27 -47 1014 -47 l925 0 49 26 c63 35 83 66 83 129 0 47
-8 64 -124 250 -68 110 -138 223 -156 250 -32 51 -250 402 -397 640 -44 72
-94 153 -112 180 -18 28 -57 90 -86 139 -67 111 -101 136 -184 136 -43 0 -69
-6 -91 -20z m126 -70 c10 -5 55 -69 100 -142 45 -73 122 -198 172 -278 50 -80
125 -201 168 -270 42 -69 108 -174 145 -235 38 -60 120 -193 183 -295 63 -102
125 -202 138 -222 29 -46 30 -82 4 -108 -20 -20 -33 -20 -945 -20 -912 0 -925
0 -945 20 -30 30 -24 68 23 142 23 37 79 127 124 200 46 73 121 194 167 268
46 74 121 194 165 265 44 72 119 191 165 265 46 74 121 195 166 267 45 73 89
137 98 143 22 12 49 12 72 0z"/>
<path d="M2224 3865 c-57 -118 -104 -223 -104 -234 0 -29 30 -41 98 -41 32 0
61 -3 65 -6 5 -5 -44 -78 -206 -304 -71 -99 -80 -117 -67 -141 8 -15 19 -19
42 -17 28 3 47 25 196 238 90 129 169 245 175 258 18 39 -11 56 -104 61 -44 2
-79 6 -77 10 116 237 158 326 163 342 9 27 -12 49 -47 49 -28 0 -33 -8 -134
-215z"/>
<path d="M421 4381 l-31 -29 0 -457 0 -457 29 -29 c28 -28 33 -29 120 -29 102
0 130 9 154 50 15 25 17 75 17 467 0 397 -2 441 -17 463 -31 45 -44 49 -144
50 -93 0 -98 -1 -128 -29z m189 -486 c0 -479 6 -445 -79 -429 l-46 9 -3 410
c-1 225 0 416 3 422 3 9 26 13 65 13 l60 0 0 -425z"/>
<path d="M516 3274 c-14 -14 -16 -81 -16 -589 0 -508 2 -575 16 -589 18 -19
28 -20 55 -6 18 10 19 28 19 595 0 567 -1 585 -19 595 -27 14 -37 13 -55 -6z"/>
<path d="M3740 3107 c-37 -17 -64 -39 -83 -67 -15 -22 -17 -60 -17 -355 1
-252 4 -336 14 -354 7 -13 32 -36 56 -52 l43 -29 166 0 c153 0 169 2 205 23
22 12 49 35 60 50 20 27 21 42 24 335 4 384 -1 405 -100 447 -46 19 -328 20
-368 2z m355 -102 l25 -24 0 -294 c0 -283 -1 -295 -21 -321 l-20 -26 -155 0
c-141 0 -156 2 -174 20 -19 19 -20 33 -20 325 0 292 1 306 20 325 18 18 33 20
170 20 147 0 152 -1 175 -25z"/>
<path d="M1154 2586 c-99 -43 -107 -172 -15 -233 l34 -23 1062 0 1062 0 34 23
c93 62 83 191 -17 233 -49 20 -2113 20 -2160 0z m2142 -102 c13 -18 12 -24 -7
-47 l-20 -27 -1034 0 -1034 0 -20 26 c-20 25 -20 34 2 62 8 9 226 12 1055 10
l1045 -3 13 -21z"/>
<path d="M3886 2144 c-3 -9 -6 -379 -6 -824 0 -445 -3 -815 -6 -824 -6 -15
-159 -16 -1639 -16 -1480 0 -1633 1 -1639 16 -3 9 -6 91 -6 183 0 117 -4 171
-12 179 -18 18 -56 14 -68 -7 -6 -12 -10 -94 -10 -198 0 -207 7 -230 77 -251
58 -17 3258 -17 3316 0 26 8 46 22 58 42 18 30 19 69 19 854 0 549 -3 830 -10
843 -13 24 -65 26 -74 3z"/>
<path d="M1151 2072 c-50 -25 -76 -65 -76 -117 0 -52 26 -92 76 -117 32 -17
104 -18 1084 -18 980 0 1052 1 1084 18 103 52 103 182 0 234 -32 17 -104 18
-1084 18 -980 0 -1052 -1 -1084 -18z m2143 -94 c13 -19 14 -25 2 -43 -13 -20
-17 -20 -1061 -20 -1044 0 -1048 0 -1061 20 -12 18 -11 24 2 43 l15 22 1044 0
1044 0 15 -22z"/>
<path d="M419 1961 l-29 -29 0 -457 0 -457 31 -29 c30 -28 35 -29 128 -29 100
1 113 5 144 50 15 22 17 66 17 463 0 392 -2 442 -17 467 -24 41 -52 50 -154
50 -87 0 -92 -1 -120 -29z m184 -68 c4 -2 7 -193 7 -424 l0 -420 -62 3 -63 3
-3 405 c-1 223 0 416 3 428 5 22 9 23 58 17 29 -4 55 -9 60 -12z"/>
<path d="M1156 1567 c-108 -61 -111 -182 -6 -238 33 -18 82 -19 1085 -19 1003
0 1052 1 1085 19 50 27 75 65 75 116 0 55 -26 92 -85 123 l-44 22 -1036 0
-1035 0 -39 -23z m2120 -75 c26 -17 34 -48 18 -70 l-15 -22 -1044 0 -1044 0
-15 22 c-16 22 -8 53 18 70 14 10 2068 10 2082 0z"/>
<path d="M1152 1060 c-33 -15 -47 -29 -62 -62 -25 -54 -25 -70 0 -118 41 -81
-46 -75 1145 -75 1050 0 1060 0 1095 20 37 22 69 74 70 113 0 44 -39 102 -83
123 -40 18 -81 19 -1082 19 -1009 0 -1041 -1 -1083 -20z m2138 -90 c11 -11 20
-24 20 -30 0 -5 -9 -19 -20 -30 -20 -20 -33 -20 -1055 -20 -1022 0 -1035 0
-1055 20 -11 11 -20 25 -20 30 0 6 9 19 20 30 20 20 33 20 1055 20 1022 0
1035 0 1055 -20z"/>
</g>
</svg>
