<?xml version="1.0" standalone="no"?>
<!DOCTYPE svg PUBLIC "-//W3C//DTD SVG 20010904//EN"
 "http://www.w3.org/TR/2001/REC-SVG-20010904/DTD/svg10.dtd">
<svg version="1.0" xmlns="http://www.w3.org/2000/svg"
 width="569.000000pt" height="585.000000pt" viewBox="0 0 569.000000 585.000000"
 preserveAspectRatio="xMidYMid meet">

<g transform="translate(0.000000,585.000000) scale(0.100000,-0.100000)"
fill="#000000" stroke="none">
<path d="M2290 5425 l0 -425 -382 2 -383 3 -6 135 c-8 155 -18 201 -61 283
-91 169 -253 267 -445 267 -148 0 -262 -48 -360 -153 -66 -71 -114 -156 -134
-237 -11 -44 -14 -187 -14 -700 l0 -645 171 -5 171 -5 58 -55 c68 -65 61 -58
150 -139 39 -36 99 -92 135 -125 36 -34 126 -117 200 -186 74 -68 167 -153
206 -189 39 -36 97 -91 130 -120 32 -30 88 -82 124 -115 36 -34 117 -108 180
-166 63 -58 148 -136 188 -174 l72 -69 0 -1304 0 -1303 550 0 550 0 0 1304 0
1303 73 69 c40 38 124 116 187 174 63 58 144 132 180 166 36 33 91 85 124 115
32 29 64 59 70 64 6 6 72 67 146 135 74 68 191 176 260 240 69 64 157 145 195
180 69 64 163 151 193 180 12 12 53 16 186 20 l171 5 0 645 c0 513 -3 656 -14
700 -20 81 -68 166 -134 237 -98 105 -212 153 -360 153 -192 0 -354 -98 -445
-267 -43 -82 -53 -128 -61 -283 l-6 -135 -382 -3 -383 -2 0 425 0 425 -550 0
-550 0 0 -425z m764 129 c8 -20 8 -518 0 -538 -5 -14 -34 -16 -214 -16 -180 0
-209 2 -214 16 -8 21 -8 539 1 547 3 4 100 7 214 7 179 0 208 -2 213 -16z
m-1966 -219 c41 -21 79 -67 92 -113 6 -20 10 -77 8 -127 l-3 -90 -172 -3 -173
-2 0 112 c0 102 3 117 24 153 35 57 80 84 142 84 28 1 65 -6 82 -14z m3667 -6
c19 -12 47 -40 60 -64 23 -38 25 -53 25 -154 l0 -111 -172 2 -173 3 -3 95 c-4
132 22 192 100 235 38 21 122 18 163 -6z m85 -854 l0 -185 -2000 0 -2000 0 0
185 0 185 2000 0 2000 0 0 -185z m-2550 -961 c0 -252 -4 -434 -9 -432 -5 2
-60 50 -122 108 -109 102 -372 344 -395 365 -6 5 -36 33 -65 60 -30 28 -113
104 -184 170 -127 117 -165 154 -165 162 0 1 211 3 470 3 l470 0 0 -436z m765
414 c3 -13 4 -639 3 -1393 l-3 -1370 -215 0 -215 0 -3 1370 c-1 754 0 1380 3
1393 5 22 6 22 215 22 209 0 210 0 215 -22z m1275 19 c0 -8 -38 -45 -165 -162
-71 -66 -154 -142 -184 -170 -29 -27 -59 -55 -65 -60 -23 -21 -286 -263 -395
-365 -62 -58 -117 -106 -122 -108 -5 -2 -9 180 -9 432 l0 436 470 0 c259 0
470 -2 470 -3z m-1272 -3377 c1 -129 0 -245 -3 -258 l-5 -22 -213 2 -212 3 -3
245 c-1 134 0 250 3 258 3 10 51 12 217 10 l213 -3 3 -235z"/>
</g>
</svg>
