<?xml version="1.0" standalone="no"?>
<!DOCTYPE svg PUBLIC "-//W3C//DTD SVG 20010904//EN"
 "http://www.w3.org/TR/2001/REC-SVG-20010904/DTD/svg10.dtd">
<svg version="1.0" xmlns="http://www.w3.org/2000/svg"
 width="787.000000pt" height="597.000000pt" viewBox="0 0 787.000000 597.000000"
 preserveAspectRatio="xMidYMid meet">

<g transform="translate(0.000000,597.000000) scale(0.100000,-0.100000)"
fill="#000000" stroke="none">
<path d="M1952 5959 c-63 -12 -152 -55 -190 -92 -52 -50 -64 -82 -69 -189 l-6
-98 -104 0 c-137 0 -226 -21 -294 -68 -105 -73 -129 -176 -64 -270 30 -44 32
-52 19 -63 -57 -47 -71 -161 -28 -225 15 -21 31 -42 38 -46 7 -5 3 -15 -11
-30 -52 -57 -69 -148 -39 -206 17 -32 81 -95 114 -112 23 -11 88 -31 145 -44
l28 -7 -3 -82 -3 -82 -355 -5 c-315 -4 -359 -7 -390 -23 -93 -47 -100 -64
-100 -252 0 -166 7 -197 54 -237 37 -31 114 -48 223 -48 l103 0 0 -140 0 -139
-433 -3 c-420 -3 -433 -4 -472 -24 -22 -12 -49 -32 -60 -44 -20 -22 -20 -36
-20 -1167 l0 -1145 38 -33 c21 -18 58 -38 82 -44 28 -7 187 -11 454 -11 l411
0 0 -419 c0 -388 1 -423 19 -463 24 -55 51 -80 126 -115 l60 -28 2075 0 2075
0 33 23 c42 30 44 77 6 113 l-26 24 -2045 3 c-1487 1 -2050 5 -2060 13 -10 9
-13 55 -13 205 l0 194 2675 0 2675 0 0 -193 c0 -137 -3 -196 -12 -205 -9 -9
-115 -12 -415 -12 -330 0 -410 -3 -438 -15 -68 -28 -65 -102 5 -138 32 -16 70
-17 470 -15 l435 3 60 28 c75 35 102 60 126 115 18 40 19 75 19 463 l0 419
411 0 c267 0 426 4 454 11 24 6 61 26 82 44 l38 33 0 1145 c0 1131 0 1145 -20
1167 -11 12 -38 32 -60 44 -39 20 -52 21 -472 24 l-433 3 0 139 0 140 103 0
c109 0 186 17 223 48 47 39 54 71 54 232 0 189 -10 214 -100 258 -30 15 -83
18 -390 22 l-355 5 -3 82 -3 82 28 7 c130 28 222 84 259 155 30 59 13 150 -39
207 -14 15 -18 26 -11 30 6 4 23 25 37 47 44 64 30 177 -27 224 -13 11 -11 19
19 63 65 94 41 197 -64 270 -68 47 -157 68 -294 68 l-104 0 -6 98 c-3 59 -11
109 -20 127 -38 73 -138 135 -253 156 -147 28 -314 -30 -388 -134 -27 -37 -30
-50 -35 -141 l-6 -101 -135 -6 c-154 -7 -220 -27 -287 -84 -43 -37 -83 -109
-83 -150 0 -29 35 -109 56 -126 20 -16 18 -24 -16 -70 -52 -72 -50 -141 6
-216 13 -17 24 -34 24 -37 0 -3 -14 -25 -31 -50 -42 -59 -47 -116 -16 -176 38
-72 110 -119 235 -150 l42 -11 0 -85 0 -84 -392 2 -393 3 -3 82 -3 82 28 7
c104 23 159 49 209 98 42 43 52 60 58 99 4 26 4 57 1 70 -9 32 -38 87 -46 87
-22 0 -15 36 14 72 28 35 32 47 32 102 0 53 -4 67 -34 108 l-33 46 33 42 c30
38 34 49 34 104 -1 87 -39 141 -135 190 -65 33 -90 38 -235 45 l-130 6 -5 100
c-6 113 -19 146 -77 194 -20 17 -66 43 -102 57 -57 24 -80 28 -166 27 -114 0
-184 -21 -257 -76 -67 -51 -82 -87 -88 -202 l-5 -100 -130 -6 c-145 -7 -170
-12 -235 -45 -96 -49 -134 -103 -135 -190 0 -55 4 -66 32 -102 29 -36 36 -72
14 -72 -19 0 -46 -78 -46 -131 1 -50 5 -63 33 -98 36 -45 36 -45 19 -63 -44
-46 -62 -107 -52 -170 6 -32 19 -54 59 -93 50 -50 105 -76 209 -99 l28 -7 -3
-82 -3 -82 -392 -3 -393 -2 0 84 0 85 43 11 c167 42 252 121 252 232 0 36 -7
56 -32 92 -18 26 -33 49 -33 52 0 3 11 20 24 37 56 75 58 144 6 216 -34 46
-36 54 -16 70 21 17 56 97 56 126 0 41 -40 113 -83 150 -67 57 -133 77 -287
84 l-135 6 -6 100 c-4 75 -10 108 -24 130 -74 115 -250 176 -413 144z m159
-182 c34 -23 34 -23 37 -110 l3 -88 -108 3 -108 3 -3 70 c-3 80 7 107 52 129
44 22 88 20 127 -7z m1900 0 c34 -23 34 -23 37 -110 l3 -87 -106 0 -106 0 3
87 c3 87 3 87 37 110 19 13 48 23 66 23 18 0 47 -10 66 -23z m1894 8 c45 -22
57 -49 53 -130 l-3 -70 -108 -3 -108 -3 3 88 c3 87 3 87 37 110 40 27 80 29
126 8z m-3285 -390 c24 -12 30 -22 30 -49 0 -27 -6 -36 -32 -50 -30 -16 -80
-17 -589 -14 -531 3 -558 4 -578 22 -36 32 -22 80 29 99 8 3 262 6 563 6 473
1 552 -1 577 -14z m1922 -12 c18 -19 20 -27 12 -50 -18 -53 -16 -53 -606 -53
-333 0 -557 4 -572 10 -33 12 -54 55 -39 78 25 41 35 42 620 39 l562 -2 23
-22z m1897 3 c27 -24 27 -58 0 -82 -20 -18 -47 -19 -578 -22 -509 -3 -559 -2
-588 14 -27 14 -33 23 -33 50 0 65 -11 64 616 61 537 -2 563 -3 583 -21z
m-3811 -292 c28 -20 29 -65 1 -90 -20 -18 -46 -19 -573 -22 -509 -2 -554 -1
-586 15 -46 24 -52 62 -14 92 26 21 32 21 588 21 492 0 564 -2 584 -16z m1908
-7 c37 -32 28 -72 -21 -93 -51 -21 -1089 -21 -1140 0 -49 21 -58 61 -21 93
l27 23 564 0 564 0 27 -23z m1898 2 c38 -30 32 -68 -14 -91 -32 -16 -81 -18
-573 -18 -475 0 -543 2 -573 16 -29 14 -34 22 -34 50 0 66 -19 64 606 64 556
0 562 0 588 -21z m-3809 -295 c31 -20 33 -64 4 -90 -20 -18 -46 -19 -573 -22
-510 -2 -554 -1 -586 15 -46 24 -52 62 -14 92 26 21 32 21 586 21 497 0 561
-2 583 -16z m1911 -7 c36 -31 28 -68 -20 -91 -30 -14 -97 -16 -571 -16 -474 0
-541 2 -571 16 -48 23 -56 60 -20 91 l27 23 564 0 564 0 27 -23z m1898 2 c38
-30 32 -68 -14 -92 -32 -16 -76 -17 -586 -15 -527 3 -553 4 -573 22 -28 25
-27 69 2 89 19 14 90 16 583 16 557 1 562 1 588 -20z m-4076 -361 l-3 -83
-312 -3 -313 -2 0 85 0 85 315 0 316 0 -3 -82z m1902 -3 l0 -85 -315 0 -315 0
0 85 0 85 315 0 315 0 0 -85z m1900 0 l0 -85 -312 2 -313 3 -3 83 -3 82 316 0
315 0 0 -85z m845 -365 l0 -105 -2430 -5 c-2300 -5 -2432 -6 -2458 -23 -54
-35 -46 -101 16 -130 32 -16 209 -17 2261 -17 l2226 0 0 -1515 0 -1515 -2675
0 -2675 0 0 1515 0 1515 231 0 c194 0 237 3 266 17 62 29 70 95 16 130 -25 16
-69 18 -463 23 l-435 5 -3 94 c-1 52 -1 100 2 108 5 11 530 13 3063 11 l3058
-3 0 -105z m-5985 -1795 l0 -1065 -375 0 -375 0 0 1065 0 1065 375 0 375 0 0
-1065z m6600 0 l0 -1065 -375 0 -375 0 0 1065 0 1065 375 0 375 0 0 -1065z"/>
<path d="M1922 3480 c-18 -11 -37 -32 -42 -46 -7 -17 -9 -440 -8 -1186 l3
-1160 28 -23 c52 -45 149 -42 193 6 18 20 19 55 22 1179 1 745 -1 1167 -8
1184 -13 35 -66 66 -115 66 -22 0 -54 -9 -73 -20z"/>
<path d="M2569 3477 c-18 -12 -36 -33 -40 -47 -9 -32 -9 -2297 0 -2329 17 -63
137 -90 198 -45 l28 21 0 1189 0 1188 -34 23 c-45 30 -107 31 -152 0z"/>
<path d="M3219 3477 l-34 -23 -3 -353 -2 -354 -65 -68 c-83 -89 -130 -163
-160 -256 -63 -193 -6 -392 161 -563 l64 -65 2 -359 3 -359 28 -21 c39 -29
125 -29 164 0 l28 21 3 279 c1 153 4 284 7 291 3 9 22 6 70 -12 36 -14 127
-38 203 -53 l137 -27 5 -239 5 -239 28 -21 c21 -15 43 -21 82 -21 39 0 61 6
82 21 l28 21 5 239 5 239 135 27 c74 15 160 36 191 47 97 36 88 59 91 -265 l3
-287 28 -21 c39 -29 125 -29 164 0 l28 21 3 358 2 358 65 68 c83 89 127 158
159 254 65 193 9 389 -161 566 l-63 65 -2 354 -3 354 -34 23 c-45 31 -107 31
-152 0 l-34 -23 -3 -282 c-2 -246 -4 -282 -18 -282 -8 0 -54 13 -102 29 -48
16 -127 35 -177 41 -49 7 -97 15 -105 20 -12 6 -16 47 -20 241 l-5 233 -34 23
c-22 15 -49 23 -76 23 -27 0 -54 -8 -76 -23 l-34 -23 -5 -233 c-4 -194 -8
-235 -20 -241 -8 -5 -55 -13 -105 -20 -49 -6 -128 -24 -175 -41 -132 -46 -119
-73 -122 253 l-3 282 -34 23 c-45 31 -107 31 -152 0z m924 -682 c258 -45 482
-203 553 -390 26 -68 26 -201 0 -270 -20 -54 -91 -159 -127 -189 -138 -115
-254 -169 -436 -201 -409 -73 -830 101 -939 390 -26 69 -26 202 0 270 70 185
294 344 549 390 99 18 297 18 400 0z"/>
<path d="M3964 2676 c-23 -10 -68 -64 -158 -188 -69 -95 -129 -183 -132 -195
-18 -68 34 -103 151 -103 41 0 75 -3 75 -7 0 -5 -36 -57 -80 -118 -44 -60 -80
-118 -80 -128 0 -70 102 -110 182 -71 18 9 50 39 71 67 21 29 79 106 128 172
49 66 92 130 95 143 18 67 -28 101 -148 109 -43 3 -78 8 -78 10 0 3 31 46 69
96 81 107 95 136 81 172 -18 48 -111 69 -176 41z"/>
<path d="M5169 3477 l-34 -23 0 -1188 0 -1189 28 -21 c61 -45 181 -18 198 45
9 32 9 2297 0 2329 -18 64 -127 91 -192 47z"/>
<path d="M5822 3480 c-18 -11 -37 -32 -42 -46 -7 -17 -9 -440 -8 -1186 l3
-1160 28 -23 c52 -45 149 -42 193 6 18 20 19 55 22 1180 3 1275 6 1201 -58
1234 -40 21 -99 19 -138 -5z"/>
</g>
</svg>
